/vscmnt/brussel_pixiu_data/_data_brussel/112/vsc11236/PredSimResults/SUBJ06opt3D/weighted-LRposFixed/expIG/worker_01.mot
version=1
nRows=7
nColumns=50
inDegrees=yes
endheader
                time	         pelvis_tilt	         pelvis_list	     pelvis_rotation	           pelvis_tx	           pelvis_ty	           pelvis_tz	       hip_flexion_r	     hip_adduction_r	      hip_rotation_r	        knee_angle_r	       ankle_angle_r	         mtp_angle_r	       hip_flexion_l	     hip_adduction_l	      hip_rotation_l	        knee_angle_l	       ankle_angle_l	         mtp_angle_l	    lumbar_extension	      lumbar_bending	     lumbar_rotation	 ercspn_r/activation	 intobl_r/activation	 extobl_r/activation	    abd_r/activation	    add_r/activation	hamstrings_r/activation	bifemsh_r/activation	glut_max_r/activation	iliopsoas_r/activation	rect_fem_r/activation	  vasti_r/activation	gastroc_r/activation	 soleus_r/activation	tib_ant_r/activation	 ercspn_l/activation	 intobl_l/activation	 extobl_l/activation	    abd_l/activation	    add_l/activation	hamstrings_l/activation	bifemsh_l/activation	glut_max_l/activation	iliopsoas_l/activation	rect_fem_l/activation	  vasti_l/activation	gastroc_l/activation	 soleus_l/activation	tib_ant_l/activation	
          0.00000000	         -6.18617079	         -1.02410470	          5.09254339	          0.00000000	          0.92846928	         -0.01068171	         32.85616504	         -1.16979411	         -7.90128633	         -8.58232638	          0.38893917	          0.22734401	        -10.42270379	         -0.80353861	         -6.37051019	        -10.84790865	          8.58671857	         33.43456183	         -5.70143796	         -0.20150892	         -8.04477151	          0.18677438	          0.16377018	          0.00999999	          0.00999999	          0.31490924	          0.06456705	          0.10857401	          0.01465075	          0.11724297	          0.01015956	          0.00999999	          0.00999999	          0.00999999	          0.52080842	          0.13086452	          0.00999999	          0.00999999	          0.08026406	          0.00999999	          0.00999999	          0.24597493	          0.01536333	          0.58815210	          0.01730679	          0.00999999	          0.24642786	          0.37944630	          0.02329729	
          0.01203721	         -6.27056220	         -0.97276737	          5.12319750	          0.01700547	          0.92664685	         -0.00999579	         33.05197660	         -1.06247124	         -7.95294688	        -10.40453165	          0.10106108	          0.22495314	        -10.85136970	         -0.93271524	         -6.75369313	        -11.74295401	          7.54968499	         35.36326715	         -5.38510881	          0.14027389	         -8.52502008	          0.17357961	          0.13640466	          0.00999999	          0.00999999	          0.42539896	          0.06538707	          0.09043161	          0.11280121	          0.09765201	          0.00999999	          0.00999999	          0.01441487	          0.01730679	          0.53024885	          0.18537109	          0.00999999	          0.00999999	          0.06685217	          0.00999999	          0.01000000	          0.20487324	          0.01441487	          0.59175260	          0.01441487	          0.00999999	          0.20822232	          0.35511744	          0.01940438	
          0.02407441	         -6.32866518	         -0.97482818	          5.13719451	          0.03449620	          0.92502899	         -0.00926830	         33.00894699	         -0.98999697	         -7.80138243	        -12.15220445	         -0.12113400	          0.19564195	        -11.14654695	         -1.15166807	         -7.13244470	        -12.95818533	          6.39069025	         37.32666398	         -5.03532280	          0.54785796	         -8.96458267	          0.14786505	          0.11361184	          0.00999999	          0.04217036	          0.35431603	          0.07085113	          0.07532075	          0.10774443	          0.08133464	          0.00999999	          0.00999999	          0.01200619	          0.01441487	          0.57516990	          0.16596701	          0.00999999	          0.00999999	          0.05568136	          0.00999999	          0.00999999	          0.20804721	          0.01200619	          0.59711750	          0.01200619	          0.00999999	          0.17342898	          0.32674913	          0.01616196	
          0.03611162	         -6.36431718	         -1.00174072	          5.11970923	          0.05222029	          0.92369138	         -0.00840313	         32.81457971	         -0.90655430	         -7.77352657	        -13.68481869	         -0.43751102	          0.18417607	        -11.21939791	         -1.44048804	         -7.52035106	        -14.61803163	          5.08271529	         39.31663791	         -4.68472768	          0.97692129	         -9.34893014	          0.16144536	          0.09462763	          0.00999999	          0.08690619	          0.32759687	          0.07270585	          0.06273487	          0.12928157	          0.06774386	          0.00999999	          0.04424715	          0.00999999	          0.01200619	          0.62724675	          0.17479200	          0.00999999	          0.00999999	          0.04637717	          0.00999999	          0.00999999	          0.19632702	          0.00999999	          0.52851776	          0.00999999	          0.00999999	          0.14444950	          0.28505312	          0.01346135	
          0.04814883	         -6.37929089	         -1.05008514	          5.07216858	          0.06996615	          0.92274207	         -0.00741250	         32.54011614	         -0.80630220	         -7.86357272	        -15.10026120	         -0.74935659	          0.14934388	        -11.01005828	         -1.80290171	         -7.92259000	        -16.78878931	          3.57925921	         41.28063037	         -4.35520706	          1.42478584	         -9.67193786	          0.15725801	          0.07881563	          0.00999999	          0.13611900	          0.29691994	          0.07216681	          0.05225206	          0.16638596	          0.05642406	          0.00999999	          0.10868900	          0.00999999	          0.00999999	          0.67249179	          0.21322830	          0.00999999	          0.00999999	          0.03862768	          0.00999999	          0.00999999	          0.17103836	          0.00999999	          0.44020398	          0.00999999	          0.00999999	          0.12031241	          0.23742158	          0.01121199	
          0.06018604	         -6.37671747	         -1.13179411	          5.00095524	          0.08753733	          0.92235313	         -0.00631004	         32.21811869	         -0.66573931	         -7.98742674	        -16.50684796	         -0.63920131	          0.11492187	        -10.47807914	         -2.25874857	         -8.33636261	        -19.49120600	          1.83817454	         43.05287736	         -4.06040236	          1.90226940	         -9.93495522	          0.14848571	          0.06564577	          0.00999999	          0.18832431	          0.25303470	          0.07490042	          0.04352089	          0.14224783	          0.04699576	          0.00999999	          0.19752095	          0.00999999	          0.00999999	          0.63906794	          0.24917893	          0.00999999	          0.00999999	          0.03217311	          0.01442328	          0.07268858	          0.15377112	          0.00999999	          0.36664718	          0.00999999	          0.00999999	          0.10020856	          0.19774912	          0.00999999	
          0.07222324	         -6.36204337	         -1.24560164	          4.91567896	          0.10475177	          0.92270585	         -0.00511726	         31.81767351	         -0.46182154	         -8.03908947	        -17.85234870	          0.08964120	          0.17738185	         -9.59280229	         -2.81293775	         -8.75862507	        -22.72531113	         -0.12274775	         44.27882736	         -3.81105897	          2.40384928	        -10.14637107	          0.13506828	          0.05467655	          0.00999999	          0.22170939	          0.23269349	          0.07135644	          0.03624868	          0.13560433	          0.03914291	          0.00999999	          0.27958618	          0.00999999	          0.00999999	          0.54601539	          0.27394017	          0.00999999	          0.00999999	          0.02679708	          0.13767373	          0.10940816	          0.13422318	          0.00999999	          0.30538150	          0.00999999	          0.00999999	          0.08346400	          0.16470582	          0.00999999	
